<svg xmlns="http://www.w3.org/2000/svg" viewBox="0 0 64 64" role="img" aria-label="Bitcoin">
  <circle cx="32" cy="32" r="31" fill="#F7931A"/>
  <path fill="#fff" d="M35.9 14.3 35 18c5.2 1.2 8.1 4.2 7.3 8.1-.5 2.6-2.2 4.3-4.7 5.1 3.3 1.2 4.9 3.7 4.2 7.1-.9 4.8-5.4 7.2-12.2 6.2l-.9 4-4.1-.9.9-3.9-3.3-.8-.9 4-4.1-.9.9-4-5.1-1.1 1.1-5.1 2.8.6c1.2.3 1.8-.1 2.1-1.3l2.8-12.8c.3-1.2-.2-1.8-1.4-2.1l-2.8-.6 1.1-5.1 5.2 1.1.9-3.9 4.1.9-.9 3.8 3.3.7.9-3.8 4.1.9Zm-10.1 19.6-1.1 5.2 5.6 1.2c3 .7 4.8-.1 5.2-2.1.4-2.1-1-3.3-4.2-4l-5.5-1.3Zm2.2-10.1-1 4.8 4.9 1.1c2.9.6 4.6-.1 5-2 .4-1.9-.8-3-3.7-3.6L28 23.8Z"/>
</svg>
