<svg xmlns="http://www.w3.org/2000/svg" viewBox="0 0 64 64" role="img" aria-label="USD Coin">
  <circle cx="32" cy="32" r="31" fill="#2775CA"/>
  <circle cx="32" cy="32" r="23" fill="none" stroke="#fff" stroke-width="4"/>
  <path fill="#fff" d="M34.4 15.5v4.1c4.5.6 7.4 3.1 8.6 7.2l-5.2 1.4c-.8-2.5-2.8-3.8-5.8-3.8-2.8 0-4.6 1.1-4.6 2.9 0 1.6 1.1 2.5 4.1 3.1l3.1.7c5.8 1.3 8.5 4.1 8.5 8.5 0 4.7-3.4 7.9-8.7 8.6v4.3h-4.7v-4.2c-5.2-.7-8.7-3.6-9.8-8.2l5.3-1.2c.9 3.1 3.3 4.6 6.7 4.6 3.4 0 5.2-1.2 5.2-3.2 0-1.7-1.2-2.6-4.4-3.4l-3.2-.7c-5.4-1.2-8-4-8-8.4 0-4.4 3.2-7.7 8.2-8.6v-4.2h4.7Z"/>
</svg>
