<svg xmlns="http://www.w3.org/2000/svg" viewBox="0 0 32 32">
  <defs>
    <linearGradient id="a" x1="2.38" y1="3.77" x2="26.53" y2="31.37" gradientUnits="userSpaceOnUse">
      <stop stop-color="#8E59FF"/>
      <stop offset="1" stop-color="#6888F9"/>
    </linearGradient>
    <linearGradient id="b" x1="2.38" y1="28.23" x2="26.53" y2=".63" gradientUnits="userSpaceOnUse">
      <stop stop-color="#8E59FF"/>
      <stop offset="1" stop-color="#6888F9"/>
    </linearGradient>
  </defs>
  <rect width="32" height="32" rx="7" fill="#080B12"/>
  <g transform="translate(0 2)">
    <path d="M32 21.9598C32.0014 20.3605 31.2756 18.8261 29.9818 17.6934C28.6881 16.5606 26.9321 15.9221 25.0994 15.918H17.4484C17.4003 15.2958 17.3699 14.6596 17.3699 14C17.3699 13.3404 17.3396 12.7073 17.2969 12.082H25.0994C26.9162 12.0566 28.6488 11.4089 29.9233 10.2788C31.1978 9.14863 31.9121 7.62659 31.9121 6.041C31.9121 4.45541 31.1978 2.93337 29.9233 1.80323C28.6488 .67309 26.9162 .02544 25.0994 0H6.81321C4.9964 .02544 3.26386 .67309 1.98936 1.80323C.714863 2.93337 .000568 4.45541 .000568 6.041C.000568 7.62659 .714862 9.14863 1.98936 10.2788C3.26386 11.4089 4.9964 12.0566 6.81321 12.082L14 12.25C14.5 12.25 14.5427 13.3404 14.5427 14C14.5427 14.6596 14.573 15.2927 14.6158 15.918H6.81321C4.9964 15.9434 3.26386 16.5911 1.98936 17.7212C.714862 18.8514 .000567 20.3734 .000567 21.959C.000567 23.5446 .714862 25.0666 1.98936 26.1968C3.26386 27.3269 4.9964 27.9746 6.81321 28H25.0994C26.9318 27.9959 28.6875 27.3576 29.9812 26.2252C31.2749 25.0928 32.0009 23.5588 32 21.9598Z" fill="url(#a)"/>
    <path opacity=".78" d="M32 6.04022C32.0014 7.63948 31.2756 9.17389 29.9818 10.3066C28.688 11.4394 26.9321 12.0779 25.0993 12.082H17.4481C17.4 12.7042 17.3697 13.3404 17.3697 14C17.3697 14.6596 17.3394 15.2927 17.2966 15.918H25.0993C26.9162 15.9434 28.6487 16.5911 29.9232 17.7212C31.1978 18.8514 31.9121 20.3734 31.9121 21.959C31.9121 23.5446 31.1978 25.0666 29.9232 26.1968C28.6487 27.3269 26.9162 27.9746 25.0993 28H6.81277C4.99592 27.9746 3.26335 27.3269 1.98883 26.1968C.714308 25.0666 0 23.5446 0 21.959C0 20.3734 .714308 18.8514 1.98883 17.7212C3.26335 16.5911 4.99592 15.9434 6.81277 15.918L13.9997 15.75C14.4997 15.75 14.5424 14.6596 14.5424 14C14.5424 13.3404 14.5727 12.7073 14.6155 12.082H6.81277C4.99592 12.0566 3.26335 11.4089 1.98883 10.2788C.714308 9.14863 0 7.62659 0 6.041C0 4.45541 .714308 2.93337 1.98883 1.80323C3.26335 .673093 4.99592 .02544 6.81277 0H25.0993C26.9317 .00412 28.6875 .642418 29.9812 1.77482C31.2749 2.90723 32.0009 4.44123 32 6.04022Z" fill="url(#b)"/>
  </g>
</svg>
